# xmcd CD database file
#
# Track frame offsets:
#	150
#	19152
#	39327
#
# Disc length: 754 seconds
#
# Revision: 0
# Processed by: cddbd v1.5PL3 Copyright (c) Steve Scherf et al.
# Submitted via: CDex 1.50beta9
#
DISCID=1902f003
DTITLE=大谷健吾 - Missing you 〜変わらない約束〜
DYEAR=1994
DGENRE=Japanese Pop
TTITLE0=Missing you -変わらない約束-
TTITLE1=Love U More
TTITLE2=Missing you -変わらない約束-（オリジナルカラオケ）
EXTD=YEAR: 1994
EXTT0=
EXTT1=
EXTT2=
PLAYORDER=
